<svg xmlns="http://www.w3.org/2000/svg" width="49.533" height="47.749" viewBox="0 0 49.533 47.749"><defs><style>.a{fill:#fff;}</style></defs><g transform="translate(0 -0.5)"><path class="a" d="M232.037,235.8h1.181a.726.726,0,1,0,0-1.451h-1.006v-1.76a.726.726,0,1,0-1.451,0v1.941A1.274,1.274,0,0,0,232.037,235.8Zm0,0" transform="translate(-208.436 -208.976)"/><path class="a" d="M163.678,214.258a.726.726,0,0,0-1.026,0,2.465,2.465,0,0,1-3.467,0,.726.726,0,0,0-1.023,1.029,3.92,3.92,0,0,0,5.513,0A.726.726,0,0,0,163.678,214.258Zm0,0" transform="translate(-142.667 -192.884)"/><path class="a" d="M278.031,216.417a3.9,3.9,0,0,0,2.757-1.133.726.726,0,0,0-1.023-1.029,2.465,2.465,0,0,1-3.468,0,.726.726,0,1,0-1.023,1.029A3.9,3.9,0,0,0,278.031,216.417Zm0,0" transform="translate(-248.45 -192.884)"/><path class="a" d="M205.509,287.027a.725.725,0,0,0,0,1.026,5.4,5.4,0,0,0,3.822,1.569,5.462,5.462,0,0,0,3.86-1.589A.726.726,0,0,0,212.171,287a4.007,4.007,0,0,1-5.636.02.725.725,0,0,0-1.026,0Zm0,0" transform="translate(-185.437 -258.595)"/><path class="a" d="M409.452,129.078a2.768,2.768,0,0,1,2.022,2.021,1.008,1.008,0,0,0,1.873,0,2.77,2.77,0,0,1,2.022-2.022,1.008,1.008,0,0,0,0-1.874,2.77,2.77,0,0,1-2.022-2.023,1.008,1.008,0,0,0-1.873,0,2.769,2.769,0,0,1-2.022,2.022,1.008,1.008,0,0,0,0,1.874Zm2.959-2.459a3.5,3.5,0,0,0,1.523,1.522,3.5,3.5,0,0,0-1.523,1.522,3.5,3.5,0,0,0-1.522-1.522A3.5,3.5,0,0,0,412.411,126.619Zm0,0" transform="translate(-369.266 -112.046)"/><path class="a" d="M25.507,129.379a2.77,2.77,0,0,1,2.022,2.022,1.008,1.008,0,0,0,1.873,0,2.77,2.77,0,0,1,2.022-2.023,1.008,1.008,0,0,0,0-1.873,2.77,2.77,0,0,1-2.022-2.023,1.008,1.008,0,0,0-1.873,0,2.77,2.77,0,0,1-2.023,2.023,1.008,1.008,0,0,0,0,1.873Zm2.959-2.459a3.5,3.5,0,0,0,1.522,1.522,3.5,3.5,0,0,0-1.522,1.522,3.5,3.5,0,0,0-1.522-1.522A3.5,3.5,0,0,0,28.465,126.92Zm0,0" transform="translate(-22.465 -112.317)"/><path class="a" d="M73.969,20.572a2.12,2.12,0,0,1,1.563,1.563.954.954,0,0,0,1.774,0,2.121,2.121,0,0,1,1.563-1.563.954.954,0,0,0,0-1.774,2.122,2.122,0,0,1-1.563-1.563.954.954,0,0,0-1.774,0A2.123,2.123,0,0,1,73.968,18.8a.954.954,0,0,0,0,1.774Zm2.45-1.846a2.827,2.827,0,0,0,.959.959,2.829,2.829,0,0,0-.959.959,2.821,2.821,0,0,0-.959-.959A2.822,2.822,0,0,0,76.419,18.726Zm0,0" transform="translate(-66.269 -14.572)"/><path class="a" d="M49.164,42.6l-.473-.47a.726.726,0,1,0-1.023,1.029l.331.33-3.25,3.231-3.263-3.244a.726.726,0,0,0-.7-.186,3.917,3.917,0,0,1-1.028.138A3.842,3.842,0,0,1,37.03,42.3l-6.959-6.918a.287.287,0,0,1,0-.408.305.305,0,0,1,.423,0L34.438,38.9a.725.725,0,0,0,1.023,0l.591-.588a.726.726,0,0,0,0-1.029l-5.258-5.227a.287.287,0,0,1,0-.409.3.3,0,0,1,.423,0l5.259,5.227a.725.725,0,0,0,1.023,0l.591-.588a.726.726,0,0,0,0-1.029l-5.258-5.227a.287.287,0,0,1,0-.408.305.305,0,0,1,.423,0l5.258,5.227a.725.725,0,0,0,1.023,0l.591-.588a.725.725,0,0,0,0-1.029l-3.944-3.92a.287.287,0,0,1,0-.408.305.305,0,0,1,.423,0l5.057,5.027a.725.725,0,0,0,1.237-.515V31.6a.561.561,0,0,1,1.121,0v4.552a.724.724,0,0,0,.108.381,3.822,3.822,0,0,1,.425,3.01.726.726,0,0,0,.188.707l.506.5a.726.726,0,1,0,1.023-1.029l-.22-.219a5.282,5.282,0,0,0-.579-3.55V31.6a2.012,2.012,0,0,0-4.024,0v.071l-2.315-2.3a5.006,5.006,0,0,0-.556-3.185,2.646,2.646,0,0,0,.385-1.375V22.436a2.684,2.684,0,0,0-1.47-2.384V17.221A10.8,10.8,0,0,0,33.46,8.53a12.326,12.326,0,0,0-2.182-1.405,7.4,7.4,0,0,0-14.724,0A12.31,12.31,0,0,0,14.372,8.53a10.8,10.8,0,0,0-4.033,8.691v2.831a2.685,2.685,0,0,0-1.469,2.384v2.373A2.662,2.662,0,0,0,9.7,26.742L9.45,30.6a1.2,1.2,0,0,0-.637.331l-.97.964a1.207,1.207,0,0,0-.076,1.628l-7.3,8.031a1.63,1.63,0,0,0,1.17,2.769,1.627,1.627,0,0,0,1.14-.461L10.86,36.6a1.212,1.212,0,0,0,1.637-.065l.97-.964a1.2,1.2,0,0,0,.335-.635L18,34.66a1.266,1.266,0,0,0,.346-.073,10.245,10.245,0,0,0,1.957.676v1.348H15.467A7.858,7.858,0,0,0,7.6,44.44v2.578a1.233,1.233,0,0,0,1.232,1.231H39a1.233,1.233,0,0,0,1.232-1.231V44.855c.171-.015.342-.038.511-.07l3.118,3.1a1.255,1.255,0,0,0,1.769,0l3.53-3.509a1.253,1.253,0,0,0,0-1.777ZM27.532,35.265a10.076,10.076,0,0,0,1.017-.3,1.814,1.814,0,0,0-.014.214,1.729,1.729,0,0,0,.514,1.234l.2.2H27.532Zm10.1-7.392a1.749,1.749,0,0,0-2.977,1.092l-.376-.373a1.748,1.748,0,0,0-2.982,1.234,1.781,1.781,0,0,0,.028.312,1.768,1.768,0,0,0-.317-.028q-.083,0-.164.008a3.551,3.551,0,0,1-.341-1.523,3.624,3.624,0,0,1,7.18-.671Zm-.117-3.064c0,.011,0,.022,0,.033A5.077,5.077,0,0,0,35.4,23.707V21.2h.848a1.253,1.253,0,0,1,1.268,1.235ZM23.917,1.951A5.95,5.95,0,0,1,29.69,6.44a17.74,17.74,0,0,0-11.548,0A5.951,5.951,0,0,1,23.917,1.951Zm-13.6,20.484A1.254,1.254,0,0,1,11.589,21.2h.848v3.849a8.011,8.011,0,0,0-1.757.241,1.262,1.262,0,0,0-.221.078,1.2,1.2,0,0,1-.139-.56ZM1.794,42.793l-.026.025a.188.188,0,0,1-.263,0,.175.175,0,0,1,0-.25l.025-.026,7.266-7.991,1.031,1.025Zm9.85-7.456-2.6-2.586.627-.623,2.6,2.586Zm6.125-2.116-4.637.3-.073-.073,2.6-1.536a.726.726,0,0,0-.738-1.249l-2.91,1.72L13.735,29.5a.726.726,0,1,0-1.246-.745L10.94,31.345l-.079-.079.3-4.6a6.5,6.5,0,0,1,1.457-.169A5.338,5.338,0,0,1,16.427,28a5.5,5.5,0,0,1,1.341,5.22Zm-.318-6.25a6.63,6.63,0,0,0-3.562-1.815V18.427h2.849a.726.726,0,1,0,0-1.451H13.76A1.322,1.322,0,0,0,12.437,18.3v1.454H11.79V17.22a9.391,9.391,0,0,1,3.5-7.563,13.705,13.705,0,0,1,8.631-2.732,13.7,13.7,0,0,1,8.631,2.732,9.392,9.392,0,0,1,3.495,7.563v2.529H35.4V18.3a1.322,1.322,0,0,0-1.323-1.319H30.961a3.858,3.858,0,0,1-3.237-1.79,1.325,1.325,0,0,0-2.241,0,3.856,3.856,0,0,1-3.237,1.791H20.123a.726.726,0,0,0,0,1.451h2.122A5.321,5.321,0,0,0,26.6,16.122a5.322,5.322,0,0,0,4.358,2.305h2.984V23.55a5.065,5.065,0,0,0-4.9,5.043,4.992,4.992,0,0,0,.533,2.248,1.728,1.728,0,0,0,.025,2.051,8.785,8.785,0,0,1-4.437,1.2H22.664a8.8,8.8,0,0,1-3.447-.7,6.91,6.91,0,0,0-1.767-6.417Zm2.89,11.092a1.412,1.412,0,0,0,1.413-1.408V35.5c.3.026.6.041.912.041H25.17q.46,0,.911-.041v1.157a1.412,1.412,0,0,0,1.413,1.408h.172L23.917,43.8l-3.749-5.74ZM9.048,46.8V44.44a6.4,6.4,0,0,1,6.419-6.377h.078l5.7,8.734Zm17.534,0,1.622-2.484a.726.726,0,0,0-1.215-.794l-1.656,2.536a1.691,1.691,0,0,1-1.13.742h-.576a1.691,1.691,0,0,1-1.129-.742l-5.22-7.992h1.156l4.875,7.464a.726.726,0,0,0,1.215,0L29.4,38.063h1.156l-1.732,2.651a.726.726,0,1,0,1.215.794l1.627-2.491,4.342,4.317a5.273,5.273,0,0,0,2.777,1.455V46.8Zm0,0"/></g></svg>